<svg xmlns="http://www.w3.org/2000/svg" viewBox="0 0 533.5 544.3" width="20" height="20">
  <path fill="#4285F4" d="M533.5 278.4c0-17.4-1.4-34.1-4.1-50.4H272v95.4h146.9c-6.3 34-25 62.8-53.3 82l86.2 66.8c50.4-46.5 81.7-115 81.7-193.8z"></path>
  <path fill="#34A853" d="M272 544.3c72.6 0 133.6-24.1 178.1-65.4l-86.2-66.8c-24 16.1-54.8 25.6-91.9 25.6-70.7 0-130.6-47.7-152-111.7H32.1v70.2C76.2 475.3 168.5 544.3 272 544.3z"></path>
  <path fill="#FBBC04" d="M120 326c-10.1-30.1-10.1-62.7 0-92.8V163H32.1c-36.4 72.7-36.4 158.7 0 231.4L120 326z"></path>
  <path fill="#EA4335" d="M272 107.7c39.5-.6 77.6 14.1 106.6 40.9l79.4-79.4C408.5 24.6 343.4-.9 272 0 168.5 0 76.2 69 32.1 163l87.9 70.2C141.4 155.4 201.3 107.7 272 107.7z"></path>
</svg>
